2.5Hzlow3min_grf.mot
version=1
nRows=30
nColumns 19
inDegrees=yes
endheader
time	1_ground_force_vx	1_ground_force_vy	1_ground_force_vz	1_ground_force_px	1_ground_force_py	1_ground_force_pz	1_ground_torque_x	1_ground_torque_y	1_ground_torque_z	2_ground_force_vx	2_ground_force_vy	2_ground_force_vz	2_ground_force_px	2_ground_force_py	2_ground_force_pz	2_ground_torque_x	2_ground_torque_y	2_ground_torque_z
            3.751500	           17.145838	          253.534330	          -17.023224	           -0.188876	            0.006263	           -0.412718	           -0.004561	           -0.067450	            0.004529	           10.524138	          293.479632	           27.556809	           -0.220657	            0.005705	           -0.702650	           -0.011817	           -0.329535	           -0.030942
            3.752000	           17.193009	          249.387245	          -16.811837	           -0.188948	            0.006263	           -0.412731	           -0.002705	           -0.039233	            0.002645	           10.772844	          289.430599	           27.166829	           -0.220365	            0.005706	           -0.702830	           -0.012152	           -0.326488	           -0.030645
            3.752500	           16.965071	          244.879773	          -16.647168	           -0.188742	            0.006264	           -0.413103	           -0.010875	           -0.156972	            0.010671	           11.024833	          284.461076	           26.679708	           -0.220702	            0.005704	           -0.702387	           -0.010936	           -0.282165	           -0.026464
            3.753000	           17.471339	          240.190996	          -16.209958	           -0.189175	            0.006266	           -0.413433	           -0.007876	           -0.108275	            0.007307	           11.275492	          279.859895	           26.193901	           -0.220913	            0.005704	           -0.702781	           -0.011703	           -0.290479	           -0.027188
            3.753500	           17.425647	          237.487592	          -16.359006	           -0.188927	            0.006260	           -0.412111	           -0.010936	           -0.149044	            0.010267	           11.243826	          275.625144	           25.944168	           -0.221166	            0.005706	           -0.703419	           -0.009719	           -0.238250	           -0.022426
            3.754000	           17.243909	          233.520139	          -16.008709	           -0.189255	            0.006262	           -0.412462	           -0.011749	           -0.159106	            0.010907	           11.450479	          270.285724	           25.878105	           -0.221082	            0.005704	           -0.703003	           -0.010478	           -0.247342	           -0.023681
            3.754500	           17.474374	          227.931554	          -15.941528	           -0.188954	            0.006263	           -0.412843	           -0.011836	           -0.154381	            0.010797	           11.420224	          265.681961	           25.814770	           -0.221111	            0.005704	           -0.702855	           -0.009282	           -0.215943	           -0.020982
            3.755000	           17.338184	          224.325035	          -15.681510	           -0.189279	            0.006262	           -0.412573	           -0.014037	           -0.181615	            0.012696	           11.527737	          261.816394	           25.472436	           -0.221034	            0.005707	           -0.703643	           -0.007613	           -0.172898	           -0.016821
            3.755500	           17.477008	          220.358233	          -15.469577	           -0.188791	            0.006262	           -0.412545	           -0.012558	           -0.158336	            0.011115	           11.591702	          257.030061	           25.079908	           -0.220828	            0.005706	           -0.703266	           -0.007398	           -0.164033	           -0.016006
            3.756000	           17.662015	          216.390851	          -15.120190	           -0.188888	            0.006263	           -0.412751	           -0.011824	           -0.144865	            0.010122	           11.747997	          252.612652	           24.594797	           -0.221228	            0.005705	           -0.703438	           -0.007311	           -0.157210	           -0.015306
            3.756500	           17.800575	          212.604709	          -14.999196	           -0.189047	            0.006261	           -0.412273	           -0.014173	           -0.169277	            0.011942	           12.188297	          247.457687	           24.670076	           -0.221317	            0.005704	           -0.702994	           -0.005667	           -0.115049	           -0.011470
            3.757000	           17.756563	          208.817155	          -14.556755	           -0.189221	            0.006259	           -0.411948	           -0.009607	           -0.112978	            0.007876	           12.196169	          245.248744	           24.427551	           -0.221516	            0.005707	           -0.704274	           -0.007129	           -0.143354	           -0.014278
            3.757500	           17.436417	          204.670982	          -14.573737	           -0.189044	            0.006261	           -0.412290	           -0.011274	           -0.132338	            0.009423	           12.312240	          238.989895	           23.888962	           -0.221858	            0.005703	           -0.703483	           -0.008264	           -0.160419	           -0.016035
            3.758000	           17.804877	          200.883704	          -14.178176	           -0.189059	            0.006262	           -0.412635	           -0.010167	           -0.114705	            0.008096	           12.605885	          235.492754	           23.688646	           -0.221856	            0.005704	           -0.703628	           -0.009531	           -0.178057	           -0.017911
            3.758500	           17.805080	          197.279177	          -14.377059	           -0.189302	            0.006263	           -0.412798	           -0.011325	           -0.125478	            0.009144	           12.717988	          230.338613	           23.200928	           -0.221789	            0.005702	           -0.703164	           -0.009473	           -0.171570	           -0.017281
            3.759000	           17.532228	          192.049257	          -13.894377	           -0.188683	            0.006269	           -0.414082	           -0.018063	           -0.197867	            0.014315	           12.591355	          226.471333	           23.093333	           -0.222229	            0.005701	           -0.703236	           -0.004861	           -0.087427	           -0.008915
            3.759500	           17.854206	          191.146418	          -13.532191	           -0.189254	            0.006258	           -0.411578	           -0.013010	           -0.139284	            0.009861	           12.745717	          222.605874	           22.750978	           -0.222087	            0.005703	           -0.703735	           -0.000808	           -0.014113	           -0.001442
            3.760000	           17.947188	          185.918141	          -13.417267	           -0.189111	            0.006262	           -0.412520	           -0.014497	           -0.150178	            0.010838	           12.807127	          218.555298	           22.595719	           -0.222296	            0.005703	           -0.703927	           -0.005258	           -0.089731	           -0.009277
            3.760500	           17.718645	          182.853384	          -13.383982	           -0.189151	            0.006260	           -0.412079	           -0.016764	           -0.173006	            0.012663	           12.725870	          215.057640	           22.160921	           -0.222395	            0.005705	           -0.704612	           -0.005536	           -0.093559	           -0.009641
            3.761000	           17.811657	          178.706308	          -13.172709	           -0.189334	            0.006262	           -0.412476	           -0.010149	           -0.101822	            0.007505	           13.164032	          210.456299	           21.909675	           -0.222446	            0.005705	           -0.704470	           -0.006045	           -0.096643	           -0.010061
            3.761500	           17.858291	          174.379941	          -13.191373	           -0.188872	            0.006265	           -0.413145	           -0.009122	           -0.089075	            0.006738	           13.273621	          206.037580	           21.753082	           -0.222778	            0.005701	           -0.703800	           -0.006932	           -0.107595	           -0.011360
            3.762000	           17.675659	          170.954661	          -13.159749	           -0.189042	            0.006266	           -0.413587	           -0.014767	           -0.142820	            0.010994	           13.145576	          202.539250	           21.459089	           -0.222912	            0.005702	           -0.704141	           -0.004618	           -0.071149	           -0.007538
            3.762500	           17.722841	          167.348177	          -12.900186	           -0.189072	            0.006266	           -0.413438	           -0.012320	           -0.116333	            0.008968	           13.346932	          198.672820	           21.445211	           -0.222843	            0.005703	           -0.704255	           -0.002396	           -0.035671	           -0.003850
            3.763000	           17.494918	          164.642771	          -12.590220	           -0.189139	            0.006262	           -0.412492	           -0.024231	           -0.228040	            0.017438	           13.176689	          193.885276	           21.146638	           -0.223006	            0.005700	           -0.703768	           -0.001641	           -0.024149	           -0.002634
            3.763500	           17.587230	          161.217741	          -12.605134	           -0.189541	            0.006265	           -0.413344	           -0.017047	           -0.156266	            0.012218	           13.326420	          191.308726	           20.855811	           -0.222771	            0.005704	           -0.704678	           -0.003234	           -0.046426	           -0.005061
            3.764000	           17.542432	          157.972164	          -12.435510	           -0.189331	            0.006264	           -0.412935	           -0.010153	           -0.091428	            0.007197	           13.439915	          185.785771	           20.507563	           -0.222999	            0.005701	           -0.703873	           -0.002872	           -0.039703	           -0.004383
            3.764500	           17.590302	          154.364500	          -11.900812	           -0.189143	            0.006261	           -0.412342	           -0.011449	           -0.100469	            0.007746	           13.592469	          182.471289	           20.589532	           -0.223444	            0.005701	           -0.704300	           -0.003755	           -0.050414	           -0.005689
            3.765000	           17.407360	          150.759544	          -12.007528	           -0.189381	            0.006267	           -0.413752	           -0.010078	           -0.087278	            0.006951	           13.605494	          178.790499	           19.966325	           -0.223349	            0.005701	           -0.704276	           -0.006288	           -0.082637	           -0.009228
            3.765500	           17.316479	          146.973751	          -11.977677	           -0.189451	            0.006268	           -0.414028	           -0.015448	           -0.131112	            0.010685	           13.569942	          175.659816	           19.955175	           -0.223581	            0.005701	           -0.704700	            0.002234	            0.028918	            0.003285
            3.766000	           16.904303	          144.089617	          -12.034876	           -0.189760	            0.006265	           -0.413343	           -0.019875	           -0.169409	            0.014150	           13.630708	          171.793182	           19.847501	           -0.223711	            0.005704	           -0.705518	            0.001727	            0.021762	            0.002514
